<?xml version="1.0" encoding="UTF-8" standalone="no"?><!DOCTYPE svg PUBLIC "-//W3C//DTD SVG 1.1//EN" "http://www.w3.org/Graphics/SVG/1.1/DTD/svg11.dtd"><svg width="100%" height="100%" viewBox="0 0 41 41" version="1.1" xmlns="http://www.w3.org/2000/svg" xmlns:xlink="http://www.w3.org/1999/xlink" xml:space="preserve" xmlns:serif="http://www.serif.com/" style="fill-rule:evenodd;clip-rule:evenodd;stroke-linejoin:round;stroke-miterlimit:2;"><rect id="favicon" x="0.184" y="0.113" width="40" height="40" style="fill:none;"/><g transform="matrix(0.102703,0,0,0.102703,-499.177,-51.2449)"><path d="M4991.36,738.476l-7.586,0l3.791,-21.902l-12.573,-68.053c-1.28,-6.925 -7.319,-11.952 -14.362,-11.952l-19.307,0c-5.41,0 -10.376,2.99 -12.908,7.771l-46.229,87.301c-2.397,4.527 -2.247,9.98 0.395,14.368c2.642,4.389 7.39,7.073 12.513,7.073l22.604,-0c5.642,-0 10.779,-3.25 13.197,-8.347l3.776,-7.963l5.797,0l0.459,3.568c0.938,7.286 7.141,12.742 14.486,12.742l21.346,-0c4.338,-0 8.452,-1.929 11.226,-5.263c2.201,-2.645 3.379,-5.957 3.375,-9.343Zm-38.045,-16.309l-27.882,0l-7.735,16.309l-22.604,0l46.229,-87.301l19.307,-0l16.129,87.301l-21.346,0l-2.098,-16.309Zm-20.207,-16.249l18.108,0l-3.837,-30.1l-14.271,30.1Z" style="fill:#ff8600;"/><path d="M4972.73,716.658l4.031,21.818l-7.588,0c-0.002,3.416 1.197,6.753 3.43,9.406c2.775,3.297 6.864,5.2 11.173,5.2l20.507,-0c7.099,-0 13.171,-5.106 14.388,-12.101l3.041,-17.468l2.117,0.008c8.786,0 16.702,-1.577 23.777,-4.575c7.853,-3.328 14.128,-8.204 18.915,-14.509c0.592,-0.78 1.156,-1.577 1.688,-2.392l5.955,-34.407c-1.69,-7.251 -5.348,-13.502 -10.827,-18.804c-8.087,-7.826 -19.005,-12.205 -33.092,-12.205c0.028,0 -31.331,-0.06 -31.331,-0.06c-7.116,-0.013 -13.206,5.103 -14.419,12.115l-11.765,67.974Zm36.709,-7.802l-5.156,29.62l-20.507,0l15.11,-87.301l31.359,0.06c9.714,-0 17.359,2.698 22.935,8.094c5.576,5.397 8.024,12.392 7.345,20.986c-0.48,5.876 -2.359,10.973 -5.636,15.29c-3.278,4.317 -7.605,7.615 -12.982,9.893c-5.376,2.279 -11.402,3.418 -18.078,3.418l-14.39,-0.06Zm2.818,-16.249l12.352,0.12c5.196,-0.12 9.174,-1.809 11.932,-5.067c2.758,-3.258 3.857,-7.265 3.298,-12.022c-0.32,-2.438 -1.249,-4.367 -2.788,-5.786c-1.539,-1.419 -3.568,-2.208 -6.086,-2.368l-14.331,-0.06l-4.377,25.183Z" style="fill:#ff8600;"/><path d="M5059.18,668.575l3.443,-19.891c1.214,-7.014 7.307,-12.131 14.425,-12.114c-0,-0 25.663,0.059 25.629,0.059c10.784,0 20.162,2.961 28.207,8.638c8.143,5.747 13.979,13.541 17.386,23.474c0.008,0.022 0.015,0.043 0.023,0.065c0.729,2.161 1.327,4.367 1.785,6.622c-1.55,3.455 -2.789,7.183 -3.721,11.183c-1.778,7.635 -2.488,14.69 -2.128,21.166c0.153,3.107 0.55,6.008 1.194,8.702c-1.423,3.274 -3.112,6.417 -5.065,9.432c-5.445,8.405 -12.461,14.986 -21.025,19.77c-8.626,4.819 -17.942,7.293 -27.953,7.4c-0.052,0 -0.104,0.001 -0.156,0.001l-29.32,-0c-4.309,-0 -8.398,-1.903 -11.173,-5.2c-2.776,-3.297 -3.953,-7.65 -3.218,-11.897l6.879,-39.749l0.497,-0.631c3.277,-4.317 5.156,-9.414 5.636,-15.29c0.341,-4.317 -0.107,-8.23 -1.345,-11.74Zm2.724,69.901l15.11,-87.301l25.663,0.06c7.555,-0 14.15,1.988 19.786,5.966c5.637,3.977 9.634,9.403 11.992,16.279c2.039,6.036 2.659,12.551 1.859,19.547l-0.42,3.657c-1.079,7.835 -3.677,14.93 -7.794,21.286c-4.118,6.356 -9.414,11.342 -15.89,14.96c-6.475,3.618 -13.471,5.466 -20.986,5.546l-29.32,0Zm32.858,-71.052l-9.534,54.863l5.996,0.06c7.036,0 12.682,-2.718 16.939,-8.154c4.257,-5.437 6.785,-13.751 7.585,-24.944l0.12,-1.978c0.28,-6.396 -0.72,-11.253 -2.998,-14.571c-2.279,-3.317 -5.696,-5.056 -10.253,-5.216l-7.855,-0.06Z" style="fill:#ff8600;"/><path d="M5134.76,674.405c2.15,-5.969 4.961,-11.358 8.391,-16.188c5.47,-7.701 11.987,-13.394 19.416,-17.231c7.583,-3.916 15.864,-5.839 24.863,-5.673c13.827,0.236 24.61,4.791 32.658,12.868c7.888,7.916 12.582,18.659 13.266,32.556c0.196,4.001 -1.259,7.907 -4.025,10.804c-2.511,2.63 -5.903,4.219 -9.504,4.476c1.297,0.729 2.487,1.662 3.521,2.774c2.805,3.017 4.206,7.078 3.857,11.182c-0.757,8.902 -3.721,16.8 -8.812,23.724c-4.973,6.764 -11.475,12.007 -19.574,15.644c-7.623,3.424 -15.865,5.098 -24.745,4.937c-0.019,-0 -0.038,-0 -0.056,-0.001c-13.589,-0.298 -24.133,-5.049 -31.941,-13.512c-6.251,-6.777 -10.368,-15.496 -11.873,-26.338c2.917,-5.418 4.816,-11.333 5.699,-17.743l0.42,-3.657c0.759,-6.64 0.239,-12.848 -1.561,-18.622Zm77.89,34.331c-0.52,6.116 -2.528,11.552 -6.026,16.309c-3.498,4.757 -8.094,8.415 -13.791,10.973c-5.696,2.558 -11.862,3.777 -18.497,3.657c-9.114,-0.199 -16.289,-3.137 -21.526,-8.814c-5.236,-5.676 -8.094,-13.371 -8.574,-23.084c-0.36,-6.476 0.35,-13.531 2.128,-21.166c1.779,-7.635 4.677,-14.28 8.695,-19.937c4.017,-5.656 8.754,-9.893 14.21,-12.711c5.456,-2.818 11.422,-4.167 17.898,-4.047c9.514,0.159 17.039,3.018 22.575,8.574c5.536,5.556 8.544,13.211 9.024,22.964l-20.446,-0.06c0.08,-5.316 -0.88,-9.113 -2.878,-11.392c-1.999,-2.278 -5.157,-3.498 -9.474,-3.657c-10.793,-0.36 -17.368,8.034 -19.727,25.183c-1.079,7.755 -1.619,13.291 -1.619,16.609c-0.2,9.833 3.438,14.89 10.913,15.169c4.837,0.16 8.694,-1.029 11.572,-3.567c2.878,-2.538 4.717,-6.126 5.516,-10.763l20.027,-0.24Zm-28.907,-26.497c-0.257,0.513 -0.47,1.134 -0.732,1.77c-1.065,2.592 -1.787,5.772 -2.301,9.509c-0.001,0.007 -0.002,0.015 -0.003,0.023c-0.478,3.433 -0.85,6.37 -1.101,8.812c2.298,-4.52 6.852,-7.619 12.082,-7.951c-1.392,-0.704 -2.673,-1.638 -3.788,-2.773c-2.486,-2.532 -3.958,-5.872 -4.157,-9.39Z" style="fill:#ff8600;"/><text x="4901.93px" y="738.476px" style="font-family:'Roboto-BlackItalic', 'Roboto';font-weight:900;font-style:italic;font-size:122.798px;fill:#fff;">APDC</text></g></svg>